<mxfile host="app.diagrams.net" modified="2023-10-31T09:22:50.734Z" agent="Mozilla/5.0 (Windows NT 10.0; Win64; x64) AppleWebKit/537.36 (KHTML, like Gecko) Chrome/113.0.0.0 Safari/537.36" version="22.0.8" etag="wPBxYmFj4HHo-H7fSG-2" type="github">
  <diagram name="Page-1" id="4SOJA_N1sZuBKmet_f5F">
    <mxGraphModel>
      <root>
        <mxCell id="0" />
        <mxCell id="1" parent="0" />
      </root>
    </mxGraphModel>
  </diagram>
</mxfile>
